<?xml version="1.0" encoding="utf-8"?>
<svg id="Layer_1" data-name="Layer 1" viewBox="48.107 417.327 1052.339 235.725" xmlns="http://www.w3.org/2000/svg">
  <defs>
    <style>.cls-1{fill:#fff;}</style>
  </defs>
  <path class="cls-1" d="M331.08,517.48a16.44,16.44,0,0,0,16.37,17.87H404l2.87-32.87H347.45A16.43,16.43,0,0,0,331.08,517.48ZM356,518.91a8.54,8.54,0,1,1-8.53-8.53A8.53,8.53,0,0,1,356,518.91Z"/>
  <path class="cls-1" d="M396,449.62H228.53a14.2,14.2,0,0,0-14.14,12.95l-4,45.72H192.26a5.19,5.19,0,0,0,0,10.38h46a9,9,0,0,1,0,18.06H169.06a5.59,5.59,0,0,0,0,11.18h37.87l-2.32,26.47a14.19,14.19,0,0,0,14.14,15.43H386.18a14.19,14.19,0,0,0,14.14-12.95l3.06-35h-55.9a22.94,22.94,0,0,1-22.8-25.43C326,504.68,336.23,496,348,496h59.35l2.71-30.93A14.19,14.19,0,0,0,396,449.62Z"/>
  <path class="cls-1" d="M169.73,478.85H197a5.2,5.2,0,0,0,0-10.39H169.73a5.2,5.2,0,0,0,0,10.39Z"/>
  <polygon class="cls-1" points="423.56 589.81 450.02 589.81 463.57 449.68 437.12 449.68 423.56 589.81"/>
  <path class="cls-1" d="M537.65,449.68H487L473.45,589.81h58.43c8.65,0,56.81-3.81,63.15-73S537.65,449.68,537.65,449.68Zm31.43,63.66c-2.31,45.56-20.47,51.32-36,52.19-9.6.53-22.4.41-30.81.23l8.94-92.44H523S571.39,467.78,569.08,513.34Z"/>
  <path class="cls-1" d="M669.13,449.68h-48L607.52,589.81H634l4.38-45.33h21.55c12.4,0,55.93-.29,60.55-49.31S669.13,449.68,669.13,449.68ZM692.69,497c-2.25,24-23.55,24.11-29.61,24.11H640.62l4.49-46.36h22.48S695,473,692.69,497Z"/>
  <path class="cls-1" d="M789.66,486.72c-29-10.39-53.63,2.69-53.63,2.69l-1.73,20.76s50.17-18.17,51,12.68c0,0-63.14-11.34-66.6,35.18s77.85,39.79,86.31,9.8S818.68,497.1,789.66,486.72Zm-29.41,81.69c-24.41.19-17.88-28.26,2.88-28.26h20.76V551.5S784.66,568.22,760.25,568.41Z"/>
  <path class="cls-1" d="M861.46,554.28l-17.59-68.91H817.53L846,582.83s-9.21,35.18-34.31,22.49V627s20.28,11.15,38.92-7.3,65.94-134.37,65.94-134.37H889.71Z"/>
</svg>